<!-- <svg id="logo-79" class="gradient" width="125" height="40" viewBox="0 0 125 40" fill="none" xmlns="http://www.w3.org/2000/svg">  <path class="ccustom" d="M88.861 37.225c.759 0 1.208-.575 1.208-1.474 0-.932-.482-1.474-1.192-1.474-.406 0-.688.18-.899.466h-.01V33.27h-.44v3.873h.44v-.368h.01c.228.314.504.45.883.45Zm-.032-.369c-.596 0-.889-.471-.889-1.1 0-.606.282-1.105.894-1.105.531 0 .786.477.786 1.105 0 .634-.255 1.1-.791 1.1Zm1.983 1.214c.341 0 .558-.12.785-.7l1.198-3.028h-.466l-.64 1.745c-.086.233-.184.547-.184.547h-.01s-.104-.314-.19-.547l-.661-1.745h-.477l1.094 2.72-.108.276c-.108.271-.233.342-.417.342a.616.616 0 0 1-.298-.06h-.022v.39c.12.049.228.06.396.06Zm3.106-.927h.737V33.27h-.737v3.873Zm2.539.082c.861 0 1.452-.64 1.452-1.469 0-.829-.59-1.468-1.452-1.468-.861 0-1.452.64-1.452 1.468 0 .83.59 1.469 1.452 1.469Zm0-.564c-.455 0-.704-.363-.704-.905 0-.541.249-.91.704-.91.45 0 .704.369.704.91 0 .542-.254.905-.704.905Zm3.019 1.43c.412 0 .769-.097 1.002-.314.206-.19.331-.455.331-.845v-2.568h-.71v.293h-.011c-.168-.233-.422-.369-.77-.369-.703 0-1.202.531-1.202 1.36 0 .84.607 1.327 1.225 1.327.352 0 .563-.14.725-.325h.017v.304c0 .379-.2.58-.618.58-.341 0-.498-.136-.558-.31h-.731c.075.542.541.867 1.3.867Zm-.01-1.706c-.38 0-.63-.276-.63-.748 0-.466.25-.758.624-.758.444 0 .661.346.661.753 0 .412-.19.753-.656.753Zm3.134.84c.861 0 1.452-.64 1.452-1.469 0-.829-.591-1.468-1.452-1.468-.862 0-1.452.64-1.452 1.468 0 .83.59 1.469 1.452 1.469Zm0-.564c-.455 0-.705-.363-.705-.905 0-.541.25-.91.705-.91.449 0 .704.369.704.91 0 .542-.255.905-.704.905Zm1.794.482h.737v-2.779h-.737v2.78Zm0-3.212h.737v-.661h-.737v.66Zm1.212 4.122h.737V36.83h.01c.158.239.412.396.802.396.715 0 1.203-.57 1.203-1.469 0-.867-.471-1.468-1.208-1.468a.972.972 0 0 0-.818.423h-.016v-.347h-.71v3.69Zm1.392-1.44c-.439 0-.672-.331-.672-.835 0-.498.185-.894.645-.894.455 0 .639.368.639.894s-.238.834-.612.834Zm2.83.612c.693 0 1.17-.336 1.17-.894 0-.65-.515-.78-.981-.878-.395-.081-.763-.103-.763-.341 0-.2.189-.31.476-.31.315 0 .504.11.537.407h.666c-.054-.558-.46-.92-1.192-.92-.634 0-1.132.286-1.132.888 0 .606.487.742.986.84.379.075.731.102.731.368 0 .195-.184.32-.509.32-.33 0-.558-.141-.607-.461h-.682c.043.59.493.98 1.3.98Zm3.968-.082v-2.779h-.737v1.604c0 .368-.212.628-.558.628-.314 0-.461-.179-.461-.504v-1.728h-.731v1.853c0 .607.347 1.002.964 1.002.39 0 .607-.146.797-.4h.016v.324h.71Zm.476 0h.737V35.53c0-.369.2-.607.498-.607.271 0 .428.163.428.477v1.744h.737V35.53c0-.369.19-.607.499-.607.271 0 .428.163.428.477v1.744h.737v-1.869c0-.607-.331-.986-.916-.986-.352 0-.645.184-.834.488h-.011a.83.83 0 0 0-.77-.488.908.908 0 0 0-.807.45h-.016v-.374h-.71v2.78Z" fill="#E5708C"></path>  <path d="M118.481 2.149c0-1.183.959-2.143 2.142-2.143h1.429a2.142 2.142 0 0 1 0 4.286h-1.429a2.142 2.142 0 0 1-2.142-2.143ZM58.49 14.29c0 7.888-6.394 14.283-14.283 14.283-7.888 0-14.283-6.395-14.283-14.283C29.924 6.4 36.319.007 44.207.007 52.096.007 58.49 6.4 58.49 14.29Zm-31.352-.071c.79 0 1.436.64 1.357 1.426A14.283 14.283 0 1 1 12.857.007c.785-.08 1.426.568 1.426 1.356V12.79c0 .79.64 1.429 1.429 1.429h11.426ZM78.487 31.43a4.285 4.285 0 1 1 0 8.57h-7.141a4.285 4.285 0 0 1 0-8.57h7.141Zm-4.285-2.857c7.889 0 14.284-6.395 14.284-14.283a14.22 14.22 0 0 0-1.789-6.925l2.36-2.36a2.928 2.928 0 1 0-4.142-4.14l-2.06 2.06A14.22 14.22 0 0 0 74.201.006C66.314.007 59.92 6.4 59.92 14.29c0 7.888 6.395 14.283 14.283 14.283Zm44.279-14.283c0 7.888-6.395 14.283-14.284 14.283-7.888 0-14.283-6.395-14.283-14.283 0-7.89 6.395-14.283 14.283-14.283 7.889 0 14.284 6.394 14.284 14.283Z" fill="url(#gradient_a1234)"></path>  <defs>    <linearGradient id="gradient_a1234" x1="0" y1="16" x2="119" y2="16" gradientUnits="userSpaceOnUse">      <stop class="ccompli1" stop-color="#64C2DB"></stop>      <stop class="ccompli2" offset=".307" stop-color="#7476ED"></stop>      <stop class="ccustom" offset=".604" stop-color="#C994DF"></stop>      <stop class="ccompli1" offset="1" stop-color="#E56F8C"></stop>    </linearGradient>  </defs></svg> -->
<svg xmlns="http://www.w3.org/2000/svg" width="100" height="40" fill="none" viewBox="0 0 100 40"><path fill="#1D2633" d="M4.77 4.235C5.03 3.001 6.26 2 7.513 2h6.812L8.66 28.823H1.848c-1.254 0-2.06-1-1.799-2.235L4.77 4.235ZM27.477 4.235C27.738 3.001 28.967 2 30.22 2h6.812l-5.665 26.823h-6.812c-1.254 0-2.06-1-1.799-2.235l4.721-22.353ZM72.892 4.235C73.152 3.001 74.38 2 75.635 2h6.812l-5.665 26.823h-6.813c-1.254 0-2.059-1-1.798-2.235l4.72-22.353ZM39.303 2h6.812c1.254 0 2.06 1 1.799 2.235l-4.721 22.353c-.26 1.235-1.489 2.235-2.743 2.235h-6.812L39.303 2ZM84.718 2h6.812c1.254 0 2.06 1 1.799 2.235l-4.722 22.353c-.26 1.235-1.488 2.235-2.742 2.235h-6.813L84.718 2ZM50.185 4.235C50.445 3.001 51.673 2 52.927 2h6.813l-5.666 26.823h-6.812c-1.254 0-2.06-1-1.798-2.235l4.72-22.353ZM62.01 2h6.813c1.254 0 2.059 1 1.798 2.235l-7.081 33.53C63.278 38.999 62.05 40 60.796 40h-6.813L62.01 2ZM12.819 19.882h9.083l-1.416 6.706c-.261 1.235-1.49 2.235-2.743 2.235H10.93l1.888-8.94ZM44.52 31.059h9.082L51.714 40h-6.812c-1.255 0-2.06-1-1.799-2.235l1.416-6.706ZM69.174 33.138l-1.15 5.446c-.05.234-.128.298-.366.298h-.523c-.238 0-.29-.064-.24-.298l1.15-5.446c.05-.233.128-.298.366-.298h.523c.238 0 .29.065.24.298ZM70.686 36.812h-.107c-.114 0-.154.032-.177.145l-.344 1.627c-.05.234-.129.298-.366.298h-.524c-.237 0-.289-.064-.24-.298l1.15-5.446c.05-.233.13-.298.367-.298h1.08c1.244 0 1.715.443 1.485 1.53l-.192.911c-.23 1.088-.888 1.53-2.132 1.53Zm.316-2.699-.3 1.426c-.025.113.001.145.116.145h.172c.4 0 .615-.161.702-.572l.12-.572c.087-.41-.059-.572-.46-.572h-.172c-.114 0-.154.032-.178.145ZM74.74 34.991l.85.935c.446.483.508.773.394 1.313l-.03.145c-.215 1.015-.727 1.579-1.914 1.579-1.186 0-1.479-.475-1.205-1.773l.034-.16c.05-.234.129-.299.366-.299h.556c.238 0 .29.065.24.298l-.075.355c-.068.322.036.451.322.451.287 0 .443-.12.505-.41l.032-.154c.048-.226.022-.338-.224-.604l-.8-.862c-.448-.475-.505-.75-.391-1.29l.037-.176c.215-1.015.727-1.58 1.913-1.58 1.187 0 1.48.476 1.206 1.773l-.034.161c-.05.234-.129.298-.366.298h-.557c-.237 0-.289-.064-.24-.298l.075-.354c.068-.323-.035-.451-.322-.451-.286 0-.443.12-.504.41l-.029.137c-.05.234-.024.347.161.556ZM79.532 33.138c.05-.233.128-.298.366-.298h.523c.238 0 .29.065.24.298l-.856 4.053c-.274 1.297-.767 1.772-1.954 1.772-1.186 0-1.479-.475-1.205-1.773l.856-4.052c.05-.233.129-.298.366-.298h.524c.237 0 .289.065.24.298l-.897 4.246c-.068.322.044.451.355.451.302 0 .477-.129.545-.451l.897-4.246ZM82.938 36.417c.003.065.024.08.065.08.04 0 .069-.015.099-.08l1.414-3.367c.069-.17.151-.21.356-.21h.794c.237 0 .289.065.24.298l-1.15 5.446c-.05.234-.13.298-.367.298h-.376c-.237 0-.29-.064-.24-.298l.552-2.61c.015-.072.002-.089-.047-.089-.033 0-.07.017-.09.073l-1.142 2.659c-.082.193-.187.265-.424.265H82.4c-.246 0-.32-.072-.32-.265l-.028-2.66c-.005-.056-.018-.072-.059-.072-.049 0-.069.017-.084.089l-.551 2.61c-.05.234-.128.298-.366.298h-.376c-.238 0-.29-.064-.24-.298l1.15-5.446c.05-.233.129-.298.366-.298h.68c.286 0 .378.065.376.347l-.011 3.23ZM100 2c0 1.105-.89 2-1.987 2a1.993 1.993 0 0 1-1.987-2c0-1.105.89-2 1.987-2S100 .895 100 2Z"></path></svg>